<?xml version="1.0" encoding="UTF-8"?>
<!-- Generator: Adobe Illustrator 19.1.0, SVG Export Plug-In . SVG Version: 6.00 Build 0)  -->
<svg version="1.1" id="Layer_1" xmlns="http://www.w3.org/2000/svg" xmlns:xlink="http://www.w3.org/1999/xlink" x="0px" y="0px" viewBox="0 0 30 30" style="enable-background:new 0 0 30 30;" xml:space="preserve">
<style type="text/css">
	.st0{fill:none;stroke:#327699;stroke-width:2;stroke-linecap:round;stroke-miterlimit:10;}
	.st1{fill:none;stroke:#327699;stroke-linecap:round;stroke-miterlimit:10;}
	.st2{fill:#93C5D6;}
</style>
<g>
	<path class="st0" d="M24.6,22.3H5.3c-1.1,0-2-0.9-2-1.9V6.8c0-1.1,0.9-1.9,2-1.9h19.3c1.1,0,2,0.9,2,1.9v13.6   C26.6,21.5,25.7,22.3,24.6,22.3z"/>
	<path class="st1" d="M26.2,21.9c0,0.9-0.9,2.7-2,2.7H5.6c-1.1,0-2-1.8-2-2.7"/>
	<path class="st1" d="M24.8,24.8c0,0.8-0.8,1.5-1.7,1.5H6.8c-0.9,0-1.7-0.7-1.7-1.5"/>
	<circle class="st2" cx="10.2" cy="13.9" r="1.1"/>
	<circle class="st2" cx="14.8" cy="13.9" r="1.1"/>
	<circle class="st2" cx="19.4" cy="13.9" r="1.1"/>
</g>
</svg>